<svg xmlns="http://www.w3.org/2000/svg" xmlns:xlink="http://www.w3.org/1999/xlink" width="690" zoomAndPan="magnify" viewBox="0 0 517.5 207.000001" height="276" preserveAspectRatio="xMidYMid meet" version="1.0"><defs><g/><clipPath id="b7a8b06e41"><path d="M 2.890625 69.996094 L 88.0625 69.996094 L 88.0625 155.167969 L 2.890625 155.167969 Z M 2.890625 69.996094 " clip-rule="nonzero"/></clipPath></defs><g fill="#000000" fill-opacity="1"><g transform="translate(97.592407, 138.714485)"><g><path d="M 116.3125 -44.53125 C 116.601562 -44.625 117.09375 -44.671875 117.78125 -44.671875 C 119.238281 -44.671875 120.359375 -44.179688 121.140625 -43.203125 C 121.921875 -42.234375 122.3125 -40.921875 122.3125 -39.265625 C 122.3125 -36.234375 121.722656 -33.863281 120.546875 -32.15625 C 119.378906 -30.445312 117.625 -29.203125 115.28125 -28.421875 C 110.789062 -26.953125 106.003906 -26.21875 100.921875 -26.21875 C 96.628906 -26.21875 92.578125 -26.804688 88.765625 -27.984375 C 85.929688 -23.390625 82.804688 -18.648438 79.390625 -13.765625 C 75.484375 -8.203125 72.140625 -4.394531 69.359375 -2.34375 C 66.578125 -0.289062 63.425781 0.734375 59.90625 0.734375 C 56 0.734375 53.046875 -0.773438 51.046875 -3.796875 C 49.046875 -6.828125 47.800781 -11.8125 47.3125 -18.75 L 46.578125 -29.4375 C 43.554688 -21.238281 40.847656 -14.988281 38.453125 -10.6875 C 36.054688 -6.394531 33.660156 -3.414062 31.265625 -1.75 C 28.878906 -0.09375 26.078125 0.734375 22.859375 0.734375 C 18.847656 0.734375 15.695312 -0.828125 13.40625 -3.953125 C 11.113281 -7.078125 9.671875 -12.007812 9.078125 -18.75 C 7.910156 -32.425781 7.328125 -44.390625 7.328125 -54.640625 L 7.328125 -59.765625 C 7.421875 -62.984375 8.296875 -65.226562 9.953125 -66.5 C 11.617188 -67.769531 14.113281 -68.40625 17.4375 -68.40625 C 19.96875 -68.40625 21.84375 -67.84375 23.0625 -66.71875 C 24.289062 -65.601562 24.90625 -63.722656 24.90625 -61.078125 C 24.90625 -49.847656 25.585938 -35.25 26.953125 -17.28125 C 33.597656 -31.25 39.703125 -45.800781 45.265625 -60.9375 C 46.335938 -63.863281 47.628906 -65.835938 49.140625 -66.859375 C 50.660156 -67.890625 52.492188 -68.40625 54.640625 -68.40625 C 57.273438 -68.40625 59.101562 -67.867188 60.125 -66.796875 C 61.15625 -65.722656 61.671875 -63.816406 61.671875 -61.078125 C 61.671875 -49.847656 62.351562 -35.25 63.71875 -17.28125 C 69.582031 -25.976562 73.976562 -32.914062 76.90625 -38.09375 C 75.4375 -40.914062 74.703125 -44.28125 74.703125 -48.1875 C 74.703125 -51.507812 75.4375 -54.734375 76.90625 -57.859375 C 78.375 -60.984375 80.375 -63.519531 82.90625 -65.46875 C 85.445312 -67.425781 88.328125 -68.40625 91.546875 -68.40625 C 94.378906 -68.40625 96.675781 -67.40625 98.4375 -65.40625 C 100.195312 -63.40625 101.078125 -60.5 101.078125 -56.6875 C 101.078125 -52.289062 99.90625 -47.265625 97.5625 -41.609375 C 101.269531 -41.796875 106.203125 -42.523438 112.359375 -43.796875 Z M 116.3125 -44.53125 "/></g></g></g><g fill="#000000" fill-opacity="1"><g transform="translate(200.133802, 138.714485)"><g><path d="M 26.21875 -77.9375 C 22.113281 -77.9375 19.035156 -78.882812 16.984375 -80.78125 C 14.941406 -82.6875 13.921875 -85.347656 13.921875 -88.765625 C 13.921875 -92.179688 15.257812 -95.035156 17.9375 -97.328125 C 20.625 -99.628906 23.972656 -100.78125 27.984375 -100.78125 C 31.597656 -100.78125 34.523438 -99.898438 36.765625 -98.140625 C 39.015625 -96.390625 40.140625 -93.898438 40.140625 -90.671875 C 40.140625 -86.765625 38.867188 -83.664062 36.328125 -81.375 C 33.785156 -79.082031 30.414062 -77.9375 26.21875 -77.9375 Z M 25.046875 0.734375 C 18.703125 0.734375 14.085938 -1.507812 11.203125 -6 C 8.328125 -10.5 6.890625 -16.457031 6.890625 -23.875 C 6.890625 -28.269531 7.445312 -33.910156 8.5625 -40.796875 C 9.6875 -47.679688 11.128906 -54.101562 12.890625 -60.0625 C 13.765625 -63.1875 14.9375 -65.332031 16.40625 -66.5 C 17.875 -67.675781 20.21875 -68.265625 23.4375 -68.265625 C 28.414062 -68.265625 30.90625 -66.601562 30.90625 -63.28125 C 30.90625 -60.84375 29.976562 -55.179688 28.125 -46.296875 C 25.78125 -35.546875 24.609375 -28.269531 24.609375 -24.46875 C 24.609375 -21.53125 25 -19.28125 25.78125 -17.71875 C 26.5625 -16.15625 27.878906 -15.375 29.734375 -15.375 C 31.492188 -15.375 33.691406 -16.59375 36.328125 -19.03125 C 38.960938 -21.476562 42.476562 -25.335938 46.875 -30.609375 C 48.050781 -31.984375 49.367188 -32.671875 50.828125 -32.671875 C 52.097656 -32.671875 53.097656 -32.082031 53.828125 -30.90625 C 54.566406 -29.738281 54.9375 -28.128906 54.9375 -26.078125 C 54.9375 -22.171875 54.007812 -19.144531 52.15625 -17 C 42.476562 -5.175781 33.441406 0.734375 25.046875 0.734375 Z M 25.046875 0.734375 "/></g></g></g><g fill="#000000" fill-opacity="1"><g transform="translate(236.169779, 138.714485)"><g><path d="M 34.28125 3.953125 C 29.195312 3.953125 25.3125 2.78125 22.625 0.4375 C 19.945312 -1.90625 18.609375 -4.539062 18.609375 -7.46875 C 18.609375 -10.007812 19.535156 -12.207031 21.390625 -14.0625 C 23.242188 -15.914062 25.976562 -16.84375 29.59375 -16.84375 C 30.863281 -16.84375 32.351562 -16.71875 34.0625 -16.46875 C 35.769531 -16.226562 37.0625 -16.0625 37.9375 -15.96875 C 37.84375 -18.507812 37.28125 -20.898438 36.25 -23.140625 C 35.226562 -25.390625 33.9375 -27.5625 32.375 -29.65625 C 30.8125 -31.757812 29.347656 -33.59375 27.984375 -35.15625 C 24.953125 -29.394531 21.945312 -24.609375 18.96875 -20.796875 C 15.988281 -16.992188 12.742188 -13.382812 9.234375 -9.96875 C 7.472656 -8.207031 5.613281 -7.328125 3.65625 -7.328125 C 2.09375 -7.328125 0.828125 -7.882812 -0.140625 -9 C -1.117188 -10.125 -1.609375 -11.519531 -1.609375 -13.1875 C -1.609375 -15.132812 -0.925781 -16.941406 0.4375 -18.609375 L 2.34375 -20.953125 C 7.71875 -27.585938 11.769531 -33.054688 14.5 -37.359375 C 16.164062 -40.191406 18.117188 -43.972656 20.359375 -48.703125 C 22.609375 -53.441406 24.804688 -58.347656 26.953125 -63.421875 C 28.804688 -67.722656 32.664062 -69.875 38.53125 -69.875 C 41.257812 -69.875 43.160156 -69.628906 44.234375 -69.140625 C 45.304688 -68.648438 45.84375 -67.867188 45.84375 -66.796875 C 45.84375 -66.210938 45.644531 -65.285156 45.25 -64.015625 C 44.863281 -62.742188 44.332031 -61.472656 43.65625 -60.203125 C 41.894531 -56.691406 41.015625 -53.710938 41.015625 -51.265625 C 41.015625 -49.804688 41.523438 -48.195312 42.546875 -46.4375 C 43.578125 -44.675781 45.164062 -42.476562 47.3125 -39.84375 C 50.4375 -35.738281 52.804688 -32.242188 54.421875 -29.359375 C 56.035156 -26.484375 56.84375 -23.335938 56.84375 -19.921875 C 56.84375 -18.941406 56.742188 -17.578125 56.546875 -15.828125 C 61.328125 -17.679688 66.941406 -22.609375 73.390625 -30.609375 C 74.554688 -31.984375 75.875 -32.671875 77.34375 -32.671875 C 78.613281 -32.671875 79.613281 -32.082031 80.34375 -30.90625 C 81.082031 -29.738281 81.453125 -28.128906 81.453125 -26.078125 C 81.453125 -22.367188 80.519531 -19.34375 78.65625 -17 C 73.78125 -10.9375 69.117188 -6.804688 64.671875 -4.609375 C 60.234375 -2.410156 54.738281 -1.21875 48.1875 -1.03125 C 44.28125 2.289062 39.644531 3.953125 34.28125 3.953125 Z M 34.28125 3.953125 "/></g></g></g><g fill="#000000" fill-opacity="1"><g transform="translate(298.720029, 138.714485)"><g><path d="M 88.328125 -32.671875 C 89.597656 -32.671875 90.597656 -32.082031 91.328125 -30.90625 C 92.066406 -29.738281 92.4375 -28.128906 92.4375 -26.078125 C 92.4375 -22.171875 91.507812 -19.144531 89.65625 -17 C 85.15625 -11.820312 80.535156 -7.570312 75.796875 -4.25 C 71.066406 -0.925781 65.675781 0.734375 59.625 0.734375 C 54.644531 0.734375 50.882812 -0.703125 48.34375 -3.578125 C 45.800781 -6.460938 44.53125 -10.640625 44.53125 -16.109375 C 44.53125 -18.847656 45.210938 -23.734375 46.578125 -30.765625 C 47.847656 -36.910156 48.484375 -41.15625 48.484375 -43.5 C 48.484375 -45.0625 47.945312 -45.84375 46.875 -45.84375 C 45.601562 -45.84375 43.796875 -44.207031 41.453125 -40.9375 C 39.109375 -37.664062 36.765625 -33.34375 34.421875 -27.96875 C 32.078125 -22.601562 30.175781 -16.941406 28.71875 -10.984375 C 26.851562 -3.171875 22.257812 0.734375 14.9375 0.734375 C 12.007812 0.734375 10.082031 -0.3125 9.15625 -2.40625 C 8.226562 -4.507812 7.765625 -8.296875 7.765625 -13.765625 C 7.765625 -16.890625 7.8125 -19.378906 7.90625 -21.234375 L 8.0625 -32.953125 C 8.0625 -47.992188 9.597656 -63.664062 12.671875 -79.96875 C 15.742188 -96.28125 20.28125 -109.976562 26.28125 -121.0625 C 32.289062 -132.15625 39.5 -137.703125 47.90625 -137.703125 C 52.394531 -137.703125 56.03125 -135.769531 58.8125 -131.90625 C 61.59375 -128.050781 62.984375 -123.046875 62.984375 -116.890625 C 62.984375 -107.023438 60.101562 -96.796875 54.34375 -86.203125 C 48.582031 -75.609375 39.207031 -63.234375 26.21875 -49.078125 C 25.925781 -43.992188 25.78125 -38.769531 25.78125 -33.40625 C 29 -41.695312 32.585938 -48.457031 36.546875 -53.6875 C 40.503906 -58.914062 44.410156 -62.648438 48.265625 -64.890625 C 52.117188 -67.140625 55.660156 -68.265625 58.890625 -68.265625 C 65.234375 -68.265625 68.40625 -65.085938 68.40625 -58.734375 C 68.40625 -54.929688 67.332031 -48.050781 65.1875 -38.09375 C 63.332031 -29.59375 62.40625 -23.972656 62.40625 -21.234375 C 62.40625 -17.328125 63.820312 -15.375 66.65625 -15.375 C 68.601562 -15.375 70.921875 -16.570312 73.609375 -18.96875 C 76.296875 -21.363281 79.882812 -25.242188 84.375 -30.609375 C 85.550781 -31.984375 86.867188 -32.671875 88.328125 -32.671875 Z M 44.828125 -123.1875 C 43.066406 -123.1875 41.113281 -120.671875 38.96875 -115.640625 C 36.820312 -110.617188 34.742188 -103.832031 32.734375 -95.28125 C 30.734375 -86.738281 29.097656 -77.441406 27.828125 -67.390625 C 33.890625 -74.515625 38.894531 -82.273438 42.84375 -90.671875 C 46.800781 -99.066406 48.78125 -106.6875 48.78125 -113.53125 C 48.78125 -116.65625 48.4375 -119.046875 47.75 -120.703125 C 47.070312 -122.359375 46.097656 -123.1875 44.828125 -123.1875 Z M 44.828125 -123.1875 "/></g></g></g><g fill="#000000" fill-opacity="1"><g transform="translate(372.256846, 138.714485)"><g><path d="M 72.359375 -32.671875 C 73.628906 -32.671875 74.628906 -32.082031 75.359375 -30.90625 C 76.097656 -29.738281 76.46875 -28.128906 76.46875 -26.078125 C 76.46875 -22.171875 75.539062 -19.144531 73.6875 -17 C 69.488281 -11.820312 64.894531 -7.570312 59.90625 -4.25 C 54.925781 -0.925781 49.21875 0.734375 42.78125 0.734375 C 22.851562 0.734375 12.890625 -13.28125 12.890625 -41.3125 C 12.890625 -45.601562 13.035156 -49.945312 13.328125 -54.34375 L 7.625 -54.34375 C 4.6875 -54.34375 2.703125 -54.878906 1.671875 -55.953125 C 0.648438 -57.023438 0.140625 -58.734375 0.140625 -61.078125 C 0.140625 -66.546875 2.335938 -69.28125 6.734375 -69.28125 L 15.09375 -69.28125 C 16.75 -80.03125 19.285156 -89.847656 22.703125 -98.734375 C 26.117188 -107.617188 30.242188 -114.695312 35.078125 -119.96875 C 39.910156 -125.238281 45.113281 -127.875 50.6875 -127.875 C 54.789062 -127.875 58.015625 -126.066406 60.359375 -122.453125 C 62.703125 -118.847656 63.875 -114.3125 63.875 -108.84375 C 63.875 -93.707031 57.523438 -80.519531 44.828125 -69.28125 L 61.234375 -69.28125 C 62.796875 -69.28125 63.914062 -68.9375 64.59375 -68.25 C 65.28125 -67.570312 65.625 -66.304688 65.625 -64.453125 C 65.625 -57.710938 60.109375 -54.34375 49.078125 -54.34375 L 31.203125 -54.34375 C 31.003906 -49.457031 30.90625 -45.648438 30.90625 -42.921875 C 30.90625 -32.765625 32.101562 -25.632812 34.5 -21.53125 C 36.894531 -17.425781 40.675781 -15.375 45.84375 -15.375 C 50.050781 -15.375 53.765625 -16.644531 56.984375 -19.1875 C 60.203125 -21.726562 64.007812 -25.535156 68.40625 -30.609375 C 69.582031 -31.984375 70.898438 -32.671875 72.359375 -32.671875 Z M 46.734375 -113.8125 C 45.265625 -113.8125 43.625 -111.976562 41.8125 -108.3125 C 40.007812 -104.65625 38.300781 -99.578125 36.6875 -93.078125 C 35.082031 -86.585938 33.742188 -79.390625 32.671875 -71.484375 C 38.429688 -76.460938 42.75 -82.050781 45.625 -88.25 C 48.507812 -94.457031 49.953125 -100.097656 49.953125 -105.171875 C 49.953125 -110.929688 48.878906 -113.8125 46.734375 -113.8125 Z M 46.734375 -113.8125 "/></g></g></g><g fill="#000000" fill-opacity="1"><g transform="translate(429.826498, 138.714485)"><g><path d="M 82.03125 -32.375 C 83.300781 -32.375 84.300781 -31.765625 85.03125 -30.546875 C 85.769531 -29.328125 86.140625 -27.785156 86.140625 -25.921875 C 86.140625 -23.679688 85.796875 -21.925781 85.109375 -20.65625 C 84.421875 -19.382812 83.347656 -18.257812 81.890625 -17.28125 L 53.765625 1.609375 C 50.046875 21.828125 45.179688 37.722656 39.171875 49.296875 C 33.171875 60.867188 25.535156 66.65625 16.265625 66.65625 C 11.285156 66.65625 7.226562 65.113281 4.09375 62.03125 C 0.96875 58.957031 -0.59375 54.929688 -0.59375 49.953125 C -0.59375 45.359375 0.457031 40.671875 2.5625 35.890625 C 4.664062 31.109375 8.570312 25.613281 14.28125 19.40625 C 20 13.207031 28.082031 6.101562 38.53125 -1.90625 L 38.96875 -5.28125 C 39.644531 -8.882812 40.425781 -14.054688 41.3125 -20.796875 C 39.351562 -13.765625 36.613281 -8.414062 33.09375 -4.75 C 29.582031 -1.09375 25.875 0.734375 21.96875 0.734375 C 17.570312 0.734375 13.984375 -1.289062 11.203125 -5.34375 C 8.421875 -9.394531 7.03125 -14.453125 7.03125 -20.515625 C 7.03125 -27.835938 7.519531 -34.550781 8.5 -40.65625 C 9.476562 -46.757812 11.085938 -53.226562 13.328125 -60.0625 C 14.304688 -62.988281 15.671875 -65.085938 17.421875 -66.359375 C 19.179688 -67.628906 21.96875 -68.265625 25.78125 -68.265625 C 27.925781 -68.265625 29.414062 -67.921875 30.25 -67.234375 C 31.082031 -66.554688 31.5 -65.53125 31.5 -64.15625 C 31.5 -63.375 30.960938 -60.738281 29.890625 -56.25 C 28.910156 -52.632812 28.128906 -49.363281 27.546875 -46.4375 C 26.765625 -42.4375 26.078125 -38.601562 25.484375 -34.9375 C 24.898438 -31.269531 24.609375 -28.265625 24.609375 -25.921875 C 24.609375 -22.210938 25.632812 -20.359375 27.6875 -20.359375 C 29.15625 -20.359375 30.984375 -21.820312 33.171875 -24.75 C 35.367188 -27.6875 37.710938 -32.128906 40.203125 -38.078125 C 42.703125 -44.035156 45.125 -51.363281 47.46875 -60.0625 C 48.25 -62.988281 49.441406 -65.085938 51.046875 -66.359375 C 52.660156 -67.628906 55.078125 -68.265625 58.296875 -68.265625 C 60.546875 -68.265625 62.109375 -67.96875 62.984375 -67.375 C 63.867188 -66.789062 64.3125 -65.816406 64.3125 -64.453125 C 64.3125 -62.015625 63.039062 -53.617188 60.5 -39.265625 L 56.6875 -15.671875 C 64.207031 -21.335938 71.53125 -26.515625 78.65625 -31.203125 C 79.925781 -31.984375 81.050781 -32.375 82.03125 -32.375 Z M 17.875 52.4375 C 20.3125 52.4375 23.039062 49.601562 26.0625 43.9375 C 29.09375 38.28125 32.125 28.859375 35.15625 15.671875 C 27.632812 22.023438 22.1875 27.8125 18.8125 33.03125 C 15.445312 38.257812 13.765625 42.828125 13.765625 46.734375 C 13.765625 48.390625 14.082031 49.753906 14.71875 50.828125 C 15.351562 51.898438 16.40625 52.4375 17.875 52.4375 Z M 17.875 52.4375 "/></g></g></g><path fill="#4f37ea" d="M 37.492188 85.96875 C 36.808594 85.96875 36.128906 86.226562 35.605469 86.746094 C 34.570312 87.78125 34.570312 89.46875 35.605469 90.507812 C 36.207031 91.078125 38.730469 92.039062 41.789062 92.925781 C 40.902344 89.867188 39.941406 87.34375 39.371094 86.746094 C 38.855469 86.226562 38.171875 85.96875 37.492188 85.96875 Z M 37.492188 85.96875 " fill-opacity="1" fill-rule="nonzero"/><path fill="#4f37ea" d="M 55.34375 86.746094 C 54.824219 86.226562 54.140625 85.96875 53.460938 85.96875 C 52.78125 85.96875 52.097656 86.226562 51.578125 86.746094 C 51.007812 87.34375 50.046875 89.867188 49.164062 92.925781 C 52.21875 92.039062 54.742188 91.078125 55.34375 90.507812 C 56.382812 89.476562 56.382812 87.78125 55.34375 86.746094 Z M 55.34375 86.746094 " fill-opacity="1" fill-rule="nonzero"/><g clip-path="url(#b7a8b06e41)"><path fill="#4f37ea" d="M 80.078125 69.996094 L 10.875 69.996094 C 6.472656 69.996094 2.890625 73.578125 2.890625 77.980469 L 2.890625 131.214844 C 2.890625 135.617188 6.472656 139.199219 10.875 139.199219 L 13.535156 139.199219 L 13.535156 152.507812 C 13.535156 153.582031 14.1875 154.554688 15.183594 154.964844 C 15.511719 155.097656 15.859375 155.167969 16.199219 155.167969 C 16.890625 155.167969 17.570312 154.898438 18.082031 154.390625 L 33.269531 139.199219 L 80.078125 139.199219 C 84.480469 139.199219 88.0625 135.617188 88.0625 131.214844 L 88.0625 77.980469 C 88.0625 73.578125 84.480469 69.996094 80.078125 69.996094 Z M 42.816406 128.550781 L 26.84375 128.550781 C 25.375 128.550781 24.183594 127.359375 24.183594 125.890625 L 24.183594 112.582031 L 42.816406 112.582031 Z M 66.769531 125.890625 C 66.769531 127.359375 65.578125 128.550781 64.105469 128.550781 L 48.136719 128.550781 L 48.136719 112.582031 L 66.769531 112.582031 Z M 72.09375 104.597656 C 72.09375 106.066406 70.898438 107.261719 69.429688 107.261719 L 48.136719 107.261719 L 48.136719 98.714844 C 47.351562 98.914062 46.617188 99.089844 46.050781 99.210938 C 45.859375 99.253906 45.667969 99.273438 45.476562 99.273438 C 45.285156 99.273438 45.09375 99.253906 44.902344 99.210938 C 44.335938 99.089844 43.601562 98.914062 42.816406 98.714844 L 42.816406 107.261719 L 21.523438 107.261719 C 20.050781 107.261719 18.859375 106.066406 18.859375 104.597656 L 18.859375 99.273438 C 18.859375 97.804688 20.050781 96.613281 21.523438 96.613281 L 35.996094 96.613281 C 34.246094 95.921875 32.699219 95.128906 31.84375 94.277344 C 28.730469 91.164062 28.730469 86.101562 31.84375 82.984375 C 34.957031 79.871094 40.019531 79.871094 43.132812 82.984375 C 43.992188 83.835938 44.785156 85.382812 45.476562 87.132812 C 46.167969 85.382812 46.960938 83.835938 47.8125 82.980469 C 50.925781 79.867188 55.996094 79.867188 59.105469 82.980469 C 62.21875 86.09375 62.21875 91.15625 59.105469 94.269531 C 58.25 95.128906 56.707031 95.921875 54.957031 96.613281 L 69.429688 96.613281 C 70.898438 96.613281 72.09375 97.804688 72.09375 99.273438 Z M 72.09375 104.597656 " fill-opacity="1" fill-rule="nonzero"/></g></svg>